<?xml version="1.0" encoding="UTF-8"?>
<svg id="Layer_1" data-name="Layer 1" xmlns="http://www.w3.org/2000/svg" viewBox="0 0 1080 344.35">
  <defs>
    <style>
      .cls-1 {
        fill: #727273;
      }

      .cls-2 {
        fill: #2556a6;
      }

      .cls-3 {
        fill: #e22726;
      }
    </style>
  </defs>
  <path class="cls-1" d="m651.63,248.89h3.62l9.77,22.38h-4.13l-2.25-5.36h-10.51l-2.29,5.36h-4l9.78-22.38Zm5.59,13.55l-3.84-8.89-3.81,8.89h7.65Zm9.58-7.94h3.84v2.57c1.08-1.55,2.63-2.92,5.24-2.92,3.78,0,5.97,2.54,5.97,6.41v10.7h-3.84v-9.52c0-2.6-1.3-4.09-3.59-4.09s-3.78,1.55-3.78,4.16v9.46h-3.84v-16.76Zm26.69-5.46h3.9v22.22h-3.9v-22.22Zm7.81,5.46h3.84v2.57c1.08-1.55,2.63-2.92,5.24-2.92,3.78,0,5.97,2.54,5.97,6.41v10.7h-3.84v-9.52c0-2.6-1.3-4.09-3.59-4.09s-3.78,1.55-3.78,4.16v9.46h-3.84v-16.76Zm18.06,19.9l1.43-2.89c1.81,1.11,3.68,1.78,5.97,1.78,3.43,0,5.3-1.78,5.3-5.14v-1.3c-1.4,1.81-3.14,3.08-5.9,3.08-3.94,0-7.62-2.92-7.62-7.84v-.06c0-4.95,3.71-7.87,7.62-7.87,2.82,0,4.57,1.3,5.87,2.86v-2.51h3.84v13.33c0,2.82-.73,4.92-2.13,6.32-1.52,1.52-3.87,2.25-6.89,2.25-2.76,0-5.33-.7-7.49-2m12.73-12.35v-.06c0-2.73-2.25-4.6-4.92-4.6s-4.76,1.84-4.76,4.6v.06c0,2.73,2.13,4.6,4.76,4.6s4.92-1.87,4.92-4.6m6.09.89v-.06c0-4.79,3.4-8.73,8.19-8.73,5.33,0,8.03,4.19,8.03,9.01,0,.35-.03.7-.06,1.08h-12.32c.41,2.73,2.35,4.25,4.83,4.25,1.87,0,3.21-.7,4.54-2l2.25,2c-1.59,1.9-3.78,3.14-6.86,3.14-4.86,0-8.6-3.52-8.6-8.7m12.41-1.24c-.25-2.48-1.71-4.41-4.25-4.41-2.35,0-4,1.81-4.35,4.41h8.6Zm6.09-7.21h3.84v3.78c1.05-2.51,2.98-4.22,5.94-4.09v4.06h-.22c-3.36,0-5.71,2.19-5.71,6.63v6.38h-3.84v-16.76Zm10.16,14.57l1.71-2.6c1.84,1.36,3.78,2.06,5.49,2.06s2.6-.7,2.6-1.81v-.06c0-1.3-1.78-1.75-3.75-2.35-2.48-.7-5.24-1.71-5.24-4.92v-.06c0-3.17,2.63-5.11,5.97-5.11,2.09,0,4.38.73,6.16,1.9l-1.52,2.73c-1.62-.98-3.33-1.59-4.73-1.59-1.49,0-2.35.7-2.35,1.65v.06c0,1.24,1.81,1.75,3.78,2.38,2.44.76,5.21,1.87,5.21,4.89v.06c0,3.52-2.73,5.27-6.22,5.27-2.38,0-5.01-.86-7.11-2.51m14.76-6.09v-.06c0-4.79,3.81-8.76,8.95-8.76s8.92,3.9,8.92,8.7v.06c0,4.76-3.81,8.73-8.98,8.73s-8.89-3.9-8.89-8.67m14.03,0v-.06c0-2.95-2.13-5.4-5.14-5.4s-5.05,2.41-5.05,5.33v.06c0,2.92,2.13,5.36,5.11,5.36s5.08-2.41,5.08-5.3m6.38-14.89h3.84v23.17h-3.84v-23.17Zm7.49,0h3.84v23.17h-3.84v-23.17Zm15.65.95h9.9c2.79,0,4.98.83,6.41,2.22,1.17,1.21,1.84,2.86,1.84,4.79v.06c0,3.65-2.19,5.84-5.27,6.73l6,8.41h-4.63l-5.46-7.75h-4.89v7.75h-3.91v-22.22Zm9.62,11.01c2.79,0,4.57-1.46,4.57-3.71v-.06c0-2.38-1.71-3.68-4.6-3.68h-5.68v7.46h5.71Zm10.19,6.38v-.06c0-3.62,2.82-5.4,6.92-5.4,1.87,0,3.2.28,4.51.7v-.41c0-2.38-1.46-3.65-4.16-3.65-1.87,0-3.27.41-4.79,1.05l-1.02-3.01c1.84-.83,3.65-1.36,6.32-1.36,2.51,0,4.38.67,5.55,1.87,1.24,1.21,1.81,2.98,1.81,5.17v9.93h-3.74v-2.1c-1.14,1.36-2.89,2.44-5.46,2.44-3.14,0-5.94-1.81-5.94-5.17m11.49-1.21v-1.14c-.98-.38-2.29-.67-3.81-.67-2.48,0-3.94,1.05-3.94,2.79v.06c0,1.62,1.43,2.54,3.27,2.54,2.54,0,4.48-1.46,4.48-3.59m6.66-10.73h3.84v2.57c1.08-1.55,2.64-2.92,5.24-2.92,3.78,0,5.97,2.54,5.97,6.41v10.7h-3.84v-9.52c0-2.6-1.3-4.09-3.59-4.09s-3.78,1.55-3.78,4.16v9.46h-3.84v-16.76Zm17.23,8.41v-.06c0-5.55,3.78-8.7,7.78-8.7,2.76,0,4.51,1.37,5.71,2.95v-9.01h3.84v23.17h-3.84v-2.79c-1.24,1.75-2.98,3.14-5.71,3.14-3.94,0-7.78-3.14-7.78-8.7m13.55,0v-.06c0-3.24-2.29-5.36-4.86-5.36s-4.82,2.03-4.82,5.36v.06c0,3.24,2.22,5.36,4.82,5.36s4.86-2.16,4.86-5.36m15.39-13.87h9.97c2.54,0,4.54.7,5.81,1.97.98.98,1.49,2.19,1.49,3.68v.06c0,2.67-1.52,4.09-3.17,4.95,2.6.89,4.41,2.38,4.41,5.4v.06c0,3.97-3.27,6.09-8.22,6.09h-10.28v-22.22Zm13.36,6.29c0-1.75-1.4-2.82-3.9-2.82h-5.62v5.9h5.33c2.51,0,4.19-.98,4.19-3.02v-.06Zm-3.33,6.38h-6.19v6.09h6.47c2.67,0,4.29-1.05,4.29-3.05v-.06c0-1.87-1.49-2.98-4.57-2.98m10.66,3.46v-10.67h3.84v9.52c0,2.6,1.3,4.06,3.59,4.06s3.78-1.52,3.78-4.13v-9.46h3.87v16.76h-3.87v-2.6c-1.08,1.59-2.63,2.95-5.24,2.95-3.78,0-5.97-2.54-5.97-6.44m16.92,3.9l1.71-2.6c1.84,1.36,3.78,2.06,5.49,2.06s2.6-.7,2.6-1.81v-.06c0-1.3-1.78-1.75-3.75-2.35-2.48-.7-5.24-1.71-5.24-4.92v-.06c0-3.17,2.63-5.11,5.97-5.11,2.09,0,4.38.73,6.16,1.9l-1.52,2.73c-1.62-.98-3.33-1.59-4.73-1.59-1.49,0-2.35.7-2.35,1.65v.06c0,1.24,1.81,1.75,3.78,2.38,2.44.76,5.21,1.87,5.21,4.89v.06c0,3.52-2.73,5.27-6.22,5.27-2.38,0-5.01-.86-7.11-2.51m15.74-20.79h4.13v3.65h-4.13v-3.65Zm.16,6.22h3.84v16.76h-3.84v-16.76Zm7.27,0h3.84v2.57c1.08-1.55,2.63-2.92,5.24-2.92,3.78,0,5.97,2.54,5.97,6.41v10.7h-3.84v-9.52c0-2.6-1.3-4.09-3.59-4.09s-3.78,1.55-3.78,4.16v9.46h-3.84v-16.76Zm17.17,8.44v-.06c0-4.79,3.4-8.73,8.19-8.73,5.33,0,8.03,4.19,8.03,9.01,0,.35-.03.7-.06,1.08h-12.32c.41,2.73,2.35,4.25,4.83,4.25,1.87,0,3.21-.7,4.54-2l2.25,2c-1.59,1.9-3.78,3.14-6.86,3.14-4.86,0-8.6-3.52-8.6-8.7m12.41-1.24c-.25-2.48-1.71-4.41-4.25-4.41-2.35,0-4,1.81-4.35,4.41h8.6Zm4.73,7.36l1.71-2.6c1.84,1.36,3.78,2.06,5.49,2.06s2.6-.7,2.6-1.81v-.06c0-1.3-1.78-1.75-3.75-2.35-2.48-.7-5.24-1.71-5.24-4.92v-.06c0-3.17,2.63-5.11,5.97-5.11,2.09,0,4.38.73,6.16,1.9l-1.52,2.73c-1.62-.98-3.33-1.59-4.73-1.59-1.49,0-2.35.7-2.35,1.65v.06c0,1.24,1.81,1.75,3.78,2.38,2.44.76,5.21,1.87,5.21,4.89v.06c0,3.52-2.73,5.27-6.22,5.27-2.38,0-5.01-.86-7.11-2.51m14,0l1.71-2.6c1.84,1.36,3.78,2.06,5.49,2.06s2.6-.7,2.6-1.81v-.06c0-1.3-1.78-1.75-3.75-2.35-2.48-.7-5.24-1.71-5.24-4.92v-.06c0-3.17,2.63-5.11,5.97-5.11,2.09,0,4.38.73,6.16,1.9l-1.52,2.73c-1.62-.98-3.33-1.59-4.73-1.59-1.49,0-2.35.7-2.35,1.65v.06c0,1.24,1.81,1.75,3.78,2.38,2.44.76,5.21,1.87,5.21,4.89v.06c0,3.52-2.73,5.27-6.22,5.27-2.38,0-5.01-.86-7.11-2.51"/>
  <g>
    <g>
      <path class="cls-2" d="m378.05,90.8c27.26,0,49.39,22.14,49.39,49.58,0,17.93-9.7,33.84-24.15,42.44l24.15,45.19c-12.26,0-23.6-6.77-29.45-17.75l-11.52-21.22c-2.74.55-5.49.73-8.42.73h-27.62v38.23c-11.16,0-20.12-8.96-20.12-20.12v-88.72c11.16,0,20.12,8.96,20.12,20.12v30.37h27.62c16.28,0,29.45-13.17,29.45-29.27s-13.17-29.45-29.45-29.45h-29.09c-11.16,0-20.12-9.15-20.12-20.12h49.21Z"/>
      <path class="cls-2" d="m464.21,136.54h53.6c11.16,0,20.12,8.96,20.12,20.12h-68.6c-3.84,0-7.13,3.29-7.13,7.13v12.26c0,11.16-8.96,20.31-20.12,20.31v-37.68c0-12.26,9.88-22.14,22.14-22.14Zm-22.14,71.35h68.6c3.84,0,7.13-3.29,7.13-7.13v-12.26c0-11.16,8.96-20.31,20.12-20.31v37.68c0,12.26-9.88,22.14-22.14,22.14h-53.6c-11.16,0-20.12-8.96-20.12-20.12Z"/>
      <path class="cls-2" d="m556.23,119.89c0-11.16,8.96-20.31,20.12-20.31v36.95h44.27c0,11.16-9.15,20.31-20.31,20.31h-44.09v-36.95Zm0,66.41c0-11.16,8.96-20.12,20.12-20.12v23.42c0,10.06,8.23,18.29,18.29,18.29h18.48c11.16,0,20.31,8.96,20.31,20.12h-40.25c-20.49,0-36.95-16.46-36.95-36.95v-4.76Z"/>
      <path class="cls-2" d="m664.71,136.54h53.6c11.16,0,20.12,8.96,20.12,20.12h-68.6c-3.84,0-7.13,3.29-7.13,7.13v12.26c0,11.16-8.96,20.31-20.12,20.31v-37.68c0-12.26,9.88-22.14,22.14-22.14Zm-22.14,71.35h68.6c3.84,0,7.13-3.29,7.13-7.13v-12.26c0-11.16,8.96-20.31,20.12-20.31v37.68c0,12.26-9.88,22.14-22.13,22.14h-53.6c-11.16,0-20.12-8.96-20.12-20.12Z"/>
      <path class="cls-2" d="m797.89,136.54h32.01v-26.53c0-11.16,8.96-20.12,20.12-20.12v85.98c0,11.16-8.96,20.12-20.12,20.12v-39.33h-32.01c-14.09,0-25.61,11.53-25.61,25.61s11.53,25.61,25.61,25.61h33.48c11.16,0,20.12,8.96,20.12,20.12h-53.6c-25.25,0-45.73-20.49-45.73-45.73s20.49-45.73,45.73-45.73Z"/>
      <path class="cls-2" d="m910.95,136.54h24.7c18.66,0,33.66,15,33.66,33.48v22.32h-67.87c0-11.16,8.96-20.12,20.12-20.12h27.44v-2.38c0-7.32-5.85-13.17-12.99-13.17h-25.06c-14.09,0-25.61,11.53-25.61,25.61s11.53,25.61,25.61,25.61h38.05c11.16,0,20.31,8.96,20.31,20.12h-58.36c-25.25,0-45.73-20.49-45.73-45.73s20.49-45.73,45.73-45.73Z"/>
      <path class="cls-2" d="m1006.81,90.26v110.68c0,3.84,3.11,6.95,6.95,6.95,7.87,0,14.27,6.4,14.27,14.27v5.85h-19.21c-12.26,0-22.14-9.88-22.14-22.14v-95.49c0-10.98,8.96-20.12,20.12-20.12Z"/>
    </g>
    <path class="cls-3" d="m296.84,157.84c0-19.86-7.73-38.53-21.78-52.57-14.04-14.05-32.71-21.78-52.57-21.78-15.52,0-30.32,4.72-42.75,13.5-1.26.88-2.49,1.81-3.69,2.78-1.18.95-2.35,1.94-3.48,2.97-.9.82-1.79,1.66-2.65,2.53l-7.14,7.15-3.22,3.22-3.22,3.22-38.99,38.99,39,38.99,3.22,3.22,3.22,3.22c.93-.82,1.84-1.68,2.74-2.57l7.06-7.06-3.21-3.21-32.58-32.58,29.37-29.37,6.41-6.41,7.06-7.07c.89-.89,1.81-1.75,2.74-2.57,1.15-1.02,2.32-1.98,3.53-2.89,1.23-.94,2.5-1.82,3.78-2.64,9.95-6.42,21.38-9.62,32.81-9.62,15.52,0,31.04,5.91,42.86,17.72,23.63,23.63,23.63,62.08,0,85.71-11.82,11.81-27.34,17.72-42.86,17.72-11.43,0-22.86-3.2-32.81-9.62l-.89.89-7.15,7.15c-.63.63-1.27,1.25-1.91,1.86,12.43,8.77,27.23,13.51,42.76,13.51,19.86,0,38.53-7.73,52.57-21.78,14.04-14.04,21.78-32.71,21.78-52.57Z"/>
    <path class="cls-2" d="m172.58,122.05l3.21,3.21,3.21,3.21,29.37,29.37-29.37,29.38-3.21,3.21-3.21,3.21-7.06,7.06c-.89.89-1.81,1.75-2.74,2.57-1.15,1.02-2.32,1.98-3.53,2.89-1.23.94-2.49,1.82-3.77,2.64-9.95,6.41-21.39,9.62-32.82,9.62-15.52,0-31.04-5.91-42.86-17.72-23.63-23.63-23.63-62.08,0-85.71,11.82-11.81,27.34-17.72,42.86-17.72,11.43,0,22.86,3.21,32.81,9.62l8.03-8.03c.64-.64,1.27-1.26,1.91-1.86-12.43-8.78-27.23-13.51-42.76-13.51-19.86,0-38.53,7.73-52.57,21.78-14.04,14.04-21.78,32.71-21.78,52.57,0,19.86,7.74,38.53,21.78,52.57,14.04,14.04,32.71,21.78,52.57,21.78,18.63,0,36.22-6.81,49.92-19.25.44-.4.88-.8,1.31-1.21.23-.22.46-.44.69-.67.22-.21.44-.43.65-.64h0s7.14-7.15,7.14-7.15l45.43-45.43-39-38.99-3.22-3.21-3.22-3.22c-.93.82-1.84,1.68-2.74,2.57l-7.06,7.07Z"/>
  </g>
</svg>